# xmcd
#
# Track frame offsets:
#	150
#	19785
#	46730
#	69755
#	82552
#	125945
#	147637
#	169452
#	195862
#	211387
#	237137
#	273365
#
# Disc length: 3890 seconds
#
# Revision: 2
# Processed by: cddbd v1.4b42PL1 Copyright (c) Steve Scherf et al.
# Submitted via: EZCDDA 4.3.2
#
DISCID=a00f300c
DTITLE=Gary Moore - A Different Beat
DYEAR=1900
DGENRE=
TTITLE0=Go on home
TTITLE1=Lost in your love
TTITLE2=Worry no more
TTITLE3=Fire
TTITLE4=Surrender
TTITLE5=House full of blues
TTITLE6=Bring my baby back
TTITLE7=Can't help myself
TTITLE8=Fatboy
TTITLE9=We want love
TTITLE10=Can't help myself (E-Z Rollers Remix)
TTITLE11=Surrender (Remix)
EXTD=
EXTT0=
EXTT1=
EXTT2=
EXTT3=
EXTT4=
EXTT5=
EXTT6=
EXTT7=
EXTT8=
EXTT9=
EXTT10=
EXTT11=
PLAYORDER=
